#N canvas 861 127 450 266 10;
#X obj -30727 193 dac~;
#X obj -30757 135 z~;
#X obj -30684 136 z~;
#X obj -30690 69 line;
#X msg -30690 22 -1 10;
#X msg -30674 34 1 2000;
#X msg -30650 46 0 100;
#X obj -30790 106 *;
#X obj -30660 114 *;
#X msg -30775 81 -30;
#X msg -30645 89 30;
#N canvas 881 212 441 419 Play 0;
#X obj -32666 31 inlet;
#X obj -32666 91 +;
#X obj -32628 91 +;
#X obj -32589 91 +;
#X floatatom -32666 117 5 10 100 0 - - -;
#X text -32700 118 MIDI;
#X floatatom -32628 117 5 10 100 0 - - -;
#X floatatom -32589 117 5 10 100 0 - - -;
#X obj -32666 145 mtof;
#X floatatom -32666 173 5 20 5500 0 - - -;
#X text -32701 174 frec;
#X obj -32666 199 osc~;
#X obj -32628 145 mtof;
#X floatatom -32628 173 5 20 5500 0 - - -;
#X obj -32628 199 osc~;
#X obj -32589 145 mtof;
#X floatatom -32589 173 5 20 5500 0 - - -;
#X obj -32589 199 osc~;
#X text -32704 200 se침al;
#N canvas 487 142 457 386 SelectModo 0;
#X obj 76 251 switch 2;
#X floatatom 76 279 5 0 0 0 - - -;
#X floatatom 98 186 5 0 0 0 - - -;
#X floatatom 121 230 5 0 0 0 - - -;
#X obj 76 85 vradio 15 1 0 3 empty empty empty 0 -8 0 10 -262144 -1
-1 2;
#X obj 164 252 switch 2;
#X floatatom 164 280 5 0 0 0 - - -;
#X floatatom 186 187 5 0 0 0 - - -;
#X floatatom 209 231 5 0 0 0 - - -;
#X obj 186 163 r np2;
#X obj 209 207 r nn2;
#X obj 255 253 switch 2;
#X floatatom 255 281 5 0 0 0 - - -;
#X floatatom 277 188 5 0 0 0 - - -;
#X floatatom 300 232 5 0 0 0 - - -;
#X obj 98 162 r np1;
#X obj 121 206 r nn1;
#X obj 277 164 r np3;
#X obj 300 208 r nn3;
#X obj 76 29 r d8;
#X obj 176 56 bng 15 250 50 0 empty empty empty 17 7 0 10 -262144 -1
-1;
#X obj 76 57 + 1;
#X obj 76 314 outlet;
#X obj 164 313 outlet;
#X obj 255 313 outlet;
#X text 201 54 Arm칩nicos;
#X text 278 56 Acorde;
#X msg 203 71 \; np1 0 \; np2 12 \; np3 24 \;;
#X msg 277 71 \; nn1 0 \; nn2 4 \; nn3 -5 \;;
#X msg 117 56 1;
#X obj 117 29 loadbang;
#X connect 0 0 1 0;
#X connect 1 0 22 0;
#X connect 2 0 0 1;
#X connect 3 0 0 2;
#X connect 4 0 0 0;
#X connect 4 0 5 0;
#X connect 4 0 11 0;
#X connect 4 0 20 0;
#X connect 5 0 6 0;
#X connect 6 0 23 0;
#X connect 7 0 5 1;
#X connect 8 0 5 2;
#X connect 9 0 7 0;
#X connect 10 0 8 0;
#X connect 11 0 12 0;
#X connect 12 0 24 0;
#X connect 13 0 11 1;
#X connect 14 0 11 2;
#X connect 15 0 2 0;
#X connect 16 0 3 0;
#X connect 17 0 13 0;
#X connect 18 0 14 0;
#X connect 19 0 21 0;
#X connect 20 0 27 0;
#X connect 20 0 28 0;
#X connect 21 0 4 0;
#X connect 29 0 4 0;
#X connect 30 0 29 0;
#X restore -32650 59 pd SelectModo;
#N canvas 549 341 313 295 Intensidad 0;
#X obj -4107 21 r d9;
#X obj -4073 27 loadbang;
#X msg -4107 85 5;
#X floatatom -4107 110 5 0 0 0 - - -;
#X floatatom -4046 109 5 0 0 0 - - -;
#X floatatom -3987 109 5 0 0 0 - - -;
#X obj -4107 167 /;
#X floatatom -4107 194 5 0 0 0 - - -;
#X obj -4107 221 outlet;
#X obj -4046 166 /;
#X floatatom -4046 193 5 0 0 0 - - -;
#X obj -4046 220 outlet;
#X obj -3987 166 /;
#X floatatom -3987 193 5 0 0 0 - - -;
#X obj -3987 220 outlet;
#X obj -4107 52 bng 15 250 50 0 empty empty empty 17 7 0 10 -262144
-1 -1;
#X obj -3987 83 random 4;
#X obj -4046 83 random 3;
#X obj -4092 133 expr $f1+$f2+$f3;
#X connect 0 0 15 0;
#X connect 1 0 15 0;
#X connect 2 0 3 0;
#X connect 3 0 6 0;
#X connect 3 0 18 0;
#X connect 4 0 9 0;
#X connect 4 0 18 1;
#X connect 5 0 12 0;
#X connect 5 0 18 2;
#X connect 6 0 7 0;
#X connect 7 0 8 0;
#X connect 9 0 10 0;
#X connect 10 0 11 0;
#X connect 12 0 13 0;
#X connect 13 0 14 0;
#X connect 15 0 2 0;
#X connect 15 0 16 0;
#X connect 15 0 17 0;
#X connect 16 0 5 0;
#X connect 17 0 4 0;
#X connect 18 0 6 1;
#X connect 18 0 9 1;
#X connect 18 0 12 1;
#X restore -32651 230 pd Intensidad;
#X obj -32614 284 +~;
#X obj -32666 300 +~;
#X obj -32666 329 outlet~;
#X obj -32666 262 *~;
#X obj -32629 262 *~;
#X obj -32588 262 *~;
#X text -32552 56 Selecci칩n si se tocan arm칩nicos o acorde mayor
;
#X text -32549 227 Otorga la intensidad a cada nota;
#X connect 0 0 1 0;
#X connect 0 0 2 0;
#X connect 0 0 3 0;
#X connect 1 0 4 0;
#X connect 2 0 6 0;
#X connect 3 0 7 0;
#X connect 4 0 8 0;
#X connect 6 0 12 0;
#X connect 7 0 15 0;
#X connect 8 0 9 0;
#X connect 9 0 11 0;
#X connect 11 0 24 0;
#X connect 12 0 13 0;
#X connect 13 0 14 0;
#X connect 14 0 25 0;
#X connect 15 0 16 0;
#X connect 16 0 17 0;
#X connect 17 0 26 0;
#X connect 19 0 1 1;
#X connect 19 1 2 1;
#X connect 19 2 3 1;
#X connect 20 0 24 1;
#X connect 20 1 25 1;
#X connect 20 2 26 1;
#X connect 21 0 22 1;
#X connect 22 0 23 0;
#X connect 24 0 22 0;
#X connect 25 0 21 0;
#X connect 26 0 21 1;
#X restore -30726 107 pd Play;
#X msg -30726 66 69;
#X obj -30757 165 *~;
#X obj -30683 165 *~;
#X obj -30718 150 tgl 15 0 empty empty empty 17 7 0 10 -262144 -1 -1
0 1;
#X connect 1 0 13 0;
#X connect 2 0 14 0;
#X connect 3 0 7 0;
#X connect 3 0 8 0;
#X connect 4 0 3 0;
#X connect 5 0 3 0;
#X connect 6 0 3 0;
#X connect 7 0 1 1;
#X connect 8 0 2 1;
#X connect 9 0 7 1;
#X connect 10 0 8 1;
#X connect 11 0 1 0;
#X connect 11 0 2 0;
#X connect 12 0 11 0;
#X connect 13 0 0 0;
#X connect 14 0 0 1;
#X connect 15 0 13 1;
#X connect 15 0 14 1;
